<svg width="18" height="18" viewBox="0 0 18 18" fill="none" xmlns="http://www.w3.org/2000/svg">
<path fill-rule="evenodd" clip-rule="evenodd" d="M9.00037 15.75C10.2198 15.7501 11.4164 15.4199 12.4632 14.7944C13.51 14.1689 14.3678 13.2716 14.9455 12.1977C15.5231 11.1238 15.7991 9.9135 15.7441 8.69534C15.689 7.47717 15.305 6.29667 14.6329 5.27925L9.26662 11.2418C9.01596 11.5203 8.67012 11.695 8.29715 11.7313C7.92419 11.7677 7.55112 11.6631 7.25137 11.4383L4.80037 9.6C4.64124 9.48065 4.53604 9.30298 4.50791 9.10607C4.47978 8.90915 4.53102 8.70913 4.65037 8.55C4.76972 8.39087 4.94739 8.28567 5.1443 8.25754C5.34122 8.22941 5.54124 8.28065 5.70037 8.4L8.15137 10.2382L13.6609 4.1175C12.8627 3.35558 11.89 2.80095 10.8277 2.50217C9.76554 2.20338 8.64628 2.16956 7.56797 2.40365C6.48965 2.63775 5.48517 3.13263 4.64247 3.84496C3.79977 4.55729 3.14455 5.46535 2.73418 6.48963C2.32381 7.51391 2.17079 8.62318 2.28854 9.72031C2.40629 10.8174 2.79121 11.869 3.4096 12.7828C4.02799 13.6967 4.86098 14.4451 5.83565 14.9623C6.81032 15.4796 7.89694 15.7501 9.00037 15.75Z" fill="#25933D"/>
</svg>
