<svg width="28" height="28" viewBox="0 0 28 28" fill="none" xmlns="http://www.w3.org/2000/svg">
<g clip-path="url(#clip0_1231_9525)">
<path fill-rule="evenodd" clip-rule="evenodd" d="M9.28297 15.683C8.94294 15.3396 8.75195 14.8741 8.75195 14.3887C8.75195 13.9034 8.94294 13.4379 9.28297 13.0945L16.1296 6.18608C16.4702 5.84266 16.9321 5.64979 17.4137 5.6499C17.6522 5.64996 17.8883 5.69739 18.1086 5.78949C18.3289 5.8816 18.529 6.01656 18.6976 6.18669C18.8662 6.35681 18.9999 6.55876 19.0911 6.78101C19.1823 7.00326 19.2292 7.24145 19.2292 7.48199C19.2291 7.72252 19.1821 7.96069 19.0908 8.1829C18.9995 8.4051 18.8657 8.60699 18.697 8.77703L13.1336 14.3887L18.697 20.0004C18.8705 20.1693 19.0089 20.3713 19.1042 20.5947C19.1995 20.8181 19.2497 21.0585 19.2519 21.3016C19.2541 21.5448 19.2083 21.786 19.1171 22.0111C19.0259 22.2363 18.8911 22.4408 18.7207 22.6129C18.5503 22.7849 18.3477 22.921 18.1246 23.0132C17.9015 23.1054 17.6624 23.1518 17.4213 23.1498C17.1802 23.1478 16.9419 23.0974 16.7203 23.0016C16.4988 22.9057 16.2983 22.7662 16.1308 22.5914L9.28055 15.683H9.28297Z" fill="#DDDDDD"/>
</g>
<defs>
<clipPath id="clip0_1231_9525">
<rect width="28" height="28" fill="white"/>
</clipPath>
</defs>
</svg>
