<svg width="28" height="28" viewBox="0 0 28 28" fill="none" xmlns="http://www.w3.org/2000/svg">
<g clip-path="url(#clip0_4064_56557)">
<path d="M11.6115 3.04396C12.219 0.540034 15.7809 0.540034 16.3884 3.04396C16.4795 3.42012 16.6582 3.76944 16.9099 4.0635C17.1615 4.35755 17.4791 4.58803 17.8366 4.73617C18.1942 4.88431 18.5817 4.94593 18.9676 4.91601C19.3535 4.8861 19.7268 4.76548 20.0573 4.564C22.2575 3.22363 24.7771 5.74181 23.4367 7.94344C23.2355 8.27377 23.1151 8.6469 23.0853 9.03253C23.0554 9.41815 23.117 9.80537 23.265 10.1627C23.4129 10.5201 23.6431 10.8375 23.9368 11.0891C24.2306 11.3407 24.5795 11.5195 24.9553 11.6109C27.4593 12.2184 27.4593 15.7803 24.9553 16.3878C24.5792 16.4789 24.2299 16.6576 23.9358 16.9093C23.6418 17.1609 23.4113 17.4785 23.2631 17.836C23.115 18.1936 23.0534 18.5811 23.0833 18.967C23.1132 19.3529 23.2338 19.7262 23.4353 20.0567C24.7757 22.2569 22.2575 24.7765 20.0559 23.4361C19.7255 23.2349 19.3524 23.1145 18.9668 23.0847C18.5812 23.0548 18.1939 23.1164 17.8366 23.2643C17.4792 23.4123 17.1618 23.6425 16.9102 23.9362C16.6586 24.23 16.4798 24.5789 16.3884 24.9547C15.7809 27.4587 12.219 27.4587 11.6115 24.9547C11.5204 24.5786 11.3417 24.2293 11.0901 23.9352C10.8384 23.6411 10.5209 23.4107 10.1633 23.2625C9.80572 23.1144 9.41822 23.0528 9.03234 23.0827C8.64645 23.1126 8.27309 23.2332 7.94263 23.4347C5.74242 24.7751 3.22281 22.2569 4.56318 20.0553C4.76438 19.7249 4.8848 19.3518 4.91465 18.9662C4.9445 18.5806 4.88294 18.1933 4.73497 17.836C4.587 17.4786 4.35679 17.1612 4.06307 16.9096C3.76935 16.658 3.42039 16.4792 3.04457 16.3878C0.540644 15.7803 0.540644 12.2184 3.04457 11.6109C3.42073 11.5198 3.77005 11.3411 4.06411 11.0894C4.35816 10.8378 4.58864 10.5202 4.73678 10.1627C4.88492 9.80511 4.94654 9.41761 4.91662 9.03173C4.88671 8.64584 4.76609 8.27248 4.56461 7.94202C3.22424 5.74181 5.74242 3.2222 7.94405 4.56257C9.36998 5.42953 11.218 4.66239 11.6115 3.04396Z" stroke="#3D489C" stroke-width="2" stroke-linecap="round" stroke-linejoin="round"/>
<path d="M9.72217 13.9985C9.72217 15.133 10.1729 16.2211 10.9751 17.0233C11.7773 17.8256 12.8654 18.2763 13.9999 18.2763C15.1345 18.2763 16.2226 17.8256 17.0248 17.0233C17.827 16.2211 18.2777 15.133 18.2777 13.9985C18.2777 12.8639 17.827 11.7759 17.0248 10.9736C16.2226 10.1714 15.1345 9.7207 13.9999 9.7207C12.8654 9.7207 11.7773 10.1714 10.9751 10.9736C10.1729 11.7759 9.72217 12.8639 9.72217 13.9985Z" stroke="#3D489C" stroke-width="2" stroke-linecap="round" stroke-linejoin="round"/>
</g>
<defs>
<clipPath id="clip0_4064_56557">
<rect width="28" height="28" fill="white"/>
</clipPath>
</defs>
</svg>
